<svg xmlns="http://www.w3.org/2000/svg" width="30" height="19" viewBox="12 17.997 30 19"><path d="M13.5 25.998h27a1.5 1.5 0 0 1 1.5 1.5 1.5 1.5 0 0 1-1.5 1.5h-27a1.5 1.5 0 0 1-1.5-1.5 1.5 1.5 0 0 1 1.5-1.5Zm0-8h27a1.5 1.5 0 0 1 1.5 1.5 1.5 1.5 0 0 1-1.5 1.5h-27a1.5 1.5 0 0 1-1.5-1.5 1.5 1.5 0 0 1 1.5-1.5Zm0 16h27a1.499 1.499 0 0 1 1.5 1.5 1.5 1.5 0 0 1-1.5 1.5h-27a1.5 1.5 0 0 1-1.5-1.5 1.499 1.499 0 0 1 1.5-1.5Z" fill="rgba(255,255,255,1)" fill-rule="evenodd" data-name="Прямоугольник, скругл. углы 1 копия 2"/></svg>